# xmcd
# 
# Track frame offsets:
#     183
#     7928
#     15348
#     24048
#     32398
#     37438
#     47020
#     54475
#     61288
#     68073
#     75513
#     81723
#     87498
#     94953
#     105810
#     120175
#     129318
#     142310
#     152370
# 
# Disc length: 2273
# 
# Revision: 1
# Processed by: cddbd v1.5.2PL0 Copyright (c) Steve Scherf et al.
# Submitted via: fre:ac v1.0.27
# 
DISCID=e008df13
DTITLE=Succes des années 60 - Vol. 3
DYEAR=0
DGENRE=Rock and Roll
TTITLE0=La leçon de twist
TTITLE1=Laissez nous twister
TTITLE2=Let's twist again
TTITLE3=Daniela
TTITLE4=Tu parles trop
TTITLE5=Twist a st tropez
TTITLE6=Mary lou
TTITLE7=Ya ya twist
TTITLE8=Je t'aime trop
TTITLE9=Cheri oh cherie
TTITLE10=Pegguy sue
TTITLE11=J'irai twister le blues
TTITLE12=Eddie sois bon
TTITLE13=Est ce que tu le sais
TTITLE14=Le loco motion
TTITLE15=Elle est terrible
TTITLE16=Quand je te vois
TTITLE17=Pour moi la vie va commencer
TTITLE18=The twist
EXTD=
EXTT0=
EXTT1=
EXTT2=
EXTT3=
EXTT4=
EXTT5=
EXTT6=
EXTT7=
EXTT8=
EXTT9=
EXTT10=
EXTT11=
EXTT12=
EXTT13=
EXTT14=
EXTT15=
EXTT16=
EXTT17=
EXTT18=
PLAYORDER=
